<svg width="42" height="40" viewBox="0 0 42 40" fill="none" xmlns="http://www.w3.org/2000/svg">
<g id="Icons">
<rect width="41.925" height="39.5729" transform="translate(0 0.326416)" fill="#7B8C86"/>
<path id="Icon" d="M14.8484 5.27304H20.1096C21.3915 5.27304 22.0324 5.27304 22.6355 5.40972C23.1702 5.53089 23.6814 5.73076 24.1503 6.00197C24.6792 6.30788 25.1324 6.73564 26.0387 7.59116L35.8109 16.8151M13.1886 16.8973H13.206M16.6159 10.2197H14.4991C11.564 10.2197 10.0965 10.2197 8.97551 10.7588C7.98942 11.233 7.1877 11.9898 6.68527 12.9205C6.11407 13.9787 6.11407 15.3639 6.11407 18.1342V20.1323C6.11407 21.3422 6.11407 21.9471 6.25887 22.5164C6.38725 23.0212 6.599 23.5037 6.88633 23.9463C7.21042 24.4455 7.66361 24.8732 8.56998 25.7287L14.16 31.0051C16.2354 32.9641 17.273 33.9435 18.4696 34.3105C19.5222 34.6333 20.656 34.6333 21.7085 34.3105C22.9051 33.9435 23.9428 32.9641 26.0182 31.0051L28.135 29.0071C30.2104 27.0481 31.248 26.0687 31.6368 24.9392C31.9788 23.9457 31.9788 22.8755 31.6368 21.882C31.248 20.7526 30.2104 19.7731 28.135 17.8142L22.545 12.5378C21.6386 11.6823 21.1854 11.2545 20.6566 10.9486C20.1877 10.6774 19.6765 10.4775 19.1417 10.3563C18.5386 10.2197 17.8977 10.2197 16.6159 10.2197ZM14.062 16.8973C14.062 17.3526 13.671 17.7217 13.1886 17.7217C12.7062 17.7217 12.3151 17.3526 12.3151 16.8973C12.3151 16.4419 12.7062 16.0728 13.1886 16.0728C13.671 16.0728 14.062 16.4419 14.062 16.8973Z" stroke="white" stroke-width="2" stroke-linecap="round" stroke-linejoin="round"/>
</g>
</svg>
