<svg width="43" height="40" viewBox="0 0 43 40" fill="none" xmlns="http://www.w3.org/2000/svg">
<rect width="43" height="39.5729" fill="#7B8C86"/>
<path fill-rule="evenodd" clip-rule="evenodd" d="M24.81 28.8164C24.71 29.4964 24.09 30.0364 23.35 30.0364H19.65C18.91 30.0364 18.29 29.4964 18.2 28.7664L17.93 26.8764C17.66 26.7364 17.4 26.5864 17.14 26.4164L15.34 27.1364C14.64 27.3964 13.87 27.1064 13.53 26.4864L11.7 23.3164C11.35 22.6564 11.5 21.8764 12.06 21.4364L13.59 20.2464C13.58 20.0964 13.57 19.9464 13.57 19.7864C13.57 19.6364 13.58 19.4764 13.59 19.3264L12.07 18.1364C11.48 17.6864 11.33 16.8764 11.7 16.2564L13.55 13.0664C13.89 12.4464 14.66 12.1664 15.34 12.4364L17.15 13.1664C17.41 12.9964 17.67 12.8464 17.93 12.7064L18.2 10.7964C18.29 10.0964 18.91 9.54643 19.64 9.54643H23.34C24.08 9.54643 24.7 10.0864 24.79 10.8164L25.06 12.7064C25.33 12.8464 25.59 12.9964 25.85 13.1664L27.65 12.4464C28.36 12.1864 29.13 12.4764 29.47 13.0964L31.31 16.2764C31.67 16.9364 31.51 17.7164 30.95 18.1564L29.43 19.3464C29.44 19.4964 29.45 19.6464 29.45 19.8064C29.45 19.9664 29.44 20.1164 29.43 20.2664L30.95 21.4564C31.51 21.9064 31.67 22.6864 31.32 23.3164L29.46 26.5364C29.12 27.1564 28.35 27.4364 27.66 27.1664L25.86 26.4464C25.6 26.6164 25.34 26.7664 25.08 26.9064L24.81 28.8164ZM20.12 28.0364H22.88L23.25 25.4864L23.78 25.2664C24.22 25.0864 24.66 24.8264 25.12 24.4864L25.57 24.1464L27.95 25.1064L29.33 22.7064L27.3 21.1264L27.37 20.5664L27.3731 20.5395C27.402 20.2891 27.43 20.0471 27.43 19.7864C27.43 19.5164 27.4 19.2564 27.37 19.0064L27.3 18.4464L29.33 16.8664L27.94 14.4664L25.55 15.4264L25.1 15.0764C24.68 14.7564 24.23 14.4964 23.77 14.3064L23.25 14.0864L22.88 11.5364H20.12L19.75 14.0864L19.22 14.2964C18.78 14.4864 18.34 14.7364 17.88 15.0864L17.43 15.4164L15.05 14.4664L13.66 16.8564L15.69 18.4364L15.62 18.9964C15.59 19.2564 15.56 19.5264 15.56 19.7864C15.56 20.0464 15.58 20.3164 15.62 20.5664L15.69 21.1264L13.66 22.7064L15.04 25.1064L17.43 24.1464L17.88 24.4964C18.31 24.8264 18.74 25.0764 19.21 25.2664L19.74 25.4864L20.12 28.0364ZM25 19.7864C25 21.7194 23.433 23.2864 21.5 23.2864C19.567 23.2864 18 21.7194 18 19.7864C18 17.8534 19.567 16.2864 21.5 16.2864C23.433 16.2864 25 17.8534 25 19.7864Z" fill="white"/>
</svg>
