<svg width="41" height="40" viewBox="0 0 41 40" fill="none" xmlns="http://www.w3.org/2000/svg">
<g id="Icons">
<rect width="40.8703" height="39.5729" transform="translate(0 0.0845337)" fill="#7B8C86"/>
<path id="Icon" d="M15.3263 28.1153H25.5439M5.10876 24.158V20.0856C5.10876 18.1915 5.10876 17.2445 5.36089 16.3723C5.58423 15.5998 5.95126 14.8731 6.44395 14.2281C7.00016 13.5 7.77222 12.9186 9.31633 11.7557L13.7439 8.42133C16.1371 6.61909 17.3336 5.71798 18.6549 5.37159C19.8207 5.06596 21.0495 5.06596 22.2153 5.37159C23.5366 5.71798 24.7332 6.6191 27.1263 8.42133L31.5539 11.7557C33.098 12.9186 33.8701 13.5 34.4263 14.2281C34.919 14.8731 35.286 15.5998 35.5094 16.3723C35.7615 17.2445 35.7615 18.1915 35.7615 20.0856V24.1581C35.7615 27.8519 35.7615 29.6988 35.019 31.1096C34.366 32.3506 33.3239 33.3596 32.0422 33.992C30.5851 34.7108 28.6777 34.7108 24.8627 34.7108H16.0075C12.1926 34.7108 10.2851 34.7108 8.82802 33.992C7.54632 33.3596 6.50426 32.3506 5.8512 31.1096C5.10876 29.6988 5.10876 27.8519 5.10876 24.158Z" stroke="white" stroke-width="2" stroke-linecap="round" stroke-linejoin="round"/>
</g>
</svg>
