<svg width="43" height="40" viewBox="0 0 43 40" fill="none" xmlns="http://www.w3.org/2000/svg">
<rect width="43" height="39.5729" fill="#7B8C86"/>
<path d="M27.2143 28.5364V33.5364C27.2143 34.1995 26.9735 34.8354 26.5448 35.3042C26.1162 35.7731 25.5348 36.0364 24.9286 36.0364H8.9286C8.32239 36.0364 7.74101 35.7731 7.31235 35.3042C6.8837 34.8354 6.64288 34.1995 6.64288 33.5364V6.03645C6.64288 5.3734 6.8837 4.73752 7.31235 4.26868C7.74101 3.79984 8.32239 3.53645 8.9286 3.53645H24.9286C25.5348 3.53645 26.1162 3.79984 26.5448 4.26868C26.9735 4.73752 27.2143 5.3734 27.2143 6.03645V11.0364" stroke="white" stroke-linecap="round" stroke-linejoin="round"/>
<path d="M20.3572 19.7864H36.3572" stroke="white" stroke-linecap="round" stroke-linejoin="round"/>
<path d="M31.7858 14.7864L36.3572 19.7864L31.7858 24.7864" stroke="white" stroke-linecap="round" stroke-linejoin="round"/>
</svg>
