<svg width="43" height="40" viewBox="0 0 43 40" fill="none" xmlns="http://www.w3.org/2000/svg">
<rect width="43" height="39.5729" fill="#7B8C86"/>
<path fill-rule="evenodd" clip-rule="evenodd" d="M15.875 5.57811C16.5654 5.57811 17.125 6.15641 17.125 6.86978V8.16144H25.875V6.86978C25.875 6.15641 26.4346 5.57811 27.125 5.57811C27.8154 5.57811 28.375 6.15641 28.375 6.86978V8.19333C31.5333 8.51736 34 11.2709 34 14.6198V26.2448C34 29.8116 31.2018 32.7031 27.75 32.7031H15.25C11.7982 32.7031 9 29.8116 9 26.2448V14.6198C9 11.2709 11.4667 8.51736 14.625 8.19333V6.86978C14.625 6.15641 15.1846 5.57811 15.875 5.57811ZM11.7134 13.3281H31.2866C30.7718 11.8231 29.3828 10.7448 27.75 10.7448H15.25C13.6172 10.7448 12.2282 11.8231 11.7134 13.3281ZM31.5 15.9114H11.5V26.2448C11.5 28.3849 13.1789 30.1198 15.25 30.1198H27.75C29.8211 30.1198 31.5 28.3849 31.5 26.2448V15.9114ZM14 19.1406C14 18.4272 14.5596 17.8489 15.25 17.8489H27.75C28.4404 17.8489 29 18.4272 29 19.1406C29 19.854 28.4404 20.4323 27.75 20.4323H15.25C14.5596 20.4323 14 19.854 14 19.1406ZM14 23.0156C14 22.3022 14.5596 21.7239 15.25 21.7239H27.75C28.4404 21.7239 29 22.3022 29 23.0156C29 23.729 28.4404 24.3073 27.75 24.3073H15.25C14.5596 24.3073 14 23.729 14 23.0156ZM14 26.8906C14 26.1772 14.5596 25.5989 15.25 25.5989H27.75C28.4404 25.5989 29 26.1772 29 26.8906C29 27.604 28.4404 28.1823 27.75 28.1823H15.25C14.5596 28.1823 14 27.604 14 26.8906Z" fill="white"/>
</svg>
