<svg width="43" height="41" viewBox="0 0 43 41" fill="none" xmlns="http://www.w3.org/2000/svg">
<g id="Icons">
<rect width="43" height="39.5729" transform="matrix(-1 0 0 1 43 0.568298)" fill="#7B8C86"/>
<path id="Icon" d="M28.6667 17.057L23.2917 12.1104L19.7083 17.057L14.3333 12.1104M37.625 5.51492H5.375M21.5 25.3014V30.248M21.5 30.248L30.4583 35.1946M21.5 30.248L12.5417 35.1946M21.5 30.248V35.1946M35.8333 5.51492H7.16667V17.3868C7.16667 20.1572 7.16667 21.5423 7.75251 22.6005C8.26783 23.5312 9.0901 24.288 10.1015 24.7622C11.2512 25.3014 12.7564 25.3014 15.7667 25.3014H27.2333C30.2436 25.3014 31.7488 25.3014 32.8985 24.7622C33.9099 24.288 34.7322 23.5312 35.2475 22.6005C35.8333 21.5423 35.8333 20.1572 35.8333 17.3868V5.51492Z" stroke="white" stroke-width="2" stroke-linecap="round" stroke-linejoin="round"/>
</g>
</svg>
